<svg xmlns="http://www.w3.org/2000/svg" viewBox="-2306 -98 28.636 26.25">
  <defs>
    <style>
      .cls-1 {
        fill: #fff084;
      }
    </style>
  </defs>
  <g id="_2-account" data-name="2-account" transform="translate(-2306 -98)">
    <path id="Path_109" data-name="Path 109" class="cls-1" d="M26.25,29.686h-.331l-4.1-7.158a2.355,2.355,0,0,0-3.239-.873L1.182,31.784a2.393,2.393,0,0,0-.866,3.254l3.263,5.7V45.2a2.389,2.389,0,0,0,2.386,2.386H26.25A2.389,2.389,0,0,0,28.636,45.2V32.073A2.389,2.389,0,0,0,26.25,29.686ZM3.579,32.072v6.263L1.351,34.444a1.2,1.2,0,0,1,.432-1.63L3.612,31.75A2.353,2.353,0,0,0,3.579,32.072Zm15.6-9.385a1.148,1.148,0,0,1,.887-.119,1.172,1.172,0,0,1,.717.555l3.759,6.564H7.158ZM27.443,45.2A1.194,1.194,0,0,1,26.25,46.39H5.965A1.194,1.194,0,0,1,4.772,45.2V32.072a1.194,1.194,0,0,1,1.193-1.193H26.25a1.194,1.194,0,0,1,1.193,1.193Z" transform="translate(0 -21.333)"/>
    <path id="Path_110" data-name="Path 110" class="cls-1" d="M327.756,362.667H320.6a.6.6,0,1,0,0,1.193h7.159a.6.6,0,1,0,0-1.193Z" transform="translate(-302.102 -343.576)"/>
    <path id="Path_111" data-name="Path 111" class="cls-1" d="M287.475,298.667H277.93a.6.6,0,1,0,0,1.193h9.545a.6.6,0,0,0,0-1.193Z" transform="translate(-261.822 -283.156)"/>
    <path id="Path_112" data-name="Path 112" class="cls-1" d="M151.719,260.773a2.386,2.386,0,1,0-2.386-2.386A2.389,2.389,0,0,0,151.719,260.773Zm0-3.58a1.193,1.193,0,1,1-1.193,1.193A1.194,1.194,0,0,1,151.719,257.193Z" transform="translate(-140.981 -242.875)"/>
    <path id="Path_113" data-name="Path 113" class="cls-1" d="M115,352.879a7.665,7.665,0,0,0-7.129,0,2.075,2.075,0,0,0-1.208,1.868v.273a1.176,1.176,0,0,0,1.193,1.156h7.159a1.176,1.176,0,0,0,1.193-1.156v-.273A2.075,2.075,0,0,0,115,352.879Zm.015,2.1-7.159.037v-.273a.892.892,0,0,1,.533-.793,6.477,6.477,0,0,1,6.094,0,.892.892,0,0,1,.533.793Z" transform="translate(-100.701 -333.506)"/>
  </g>
</svg>
